<?xml version="1.0" encoding="UTF-8" standalone="no"?>
<svg
   xmlns:dc="http://purl.org/dc/elements/1.1/"
   xmlns:cc="http://creativecommons.org/ns#"
   xmlns:rdf="http://www.w3.org/1999/02/22-rdf-syntax-ns#"
   xmlns:svg="http://www.w3.org/2000/svg"
   xmlns="http://www.w3.org/2000/svg"
   xmlns:sodipodi="http://sodipodi.sourceforge.net/DTD/sodipodi-0.dtd"
   xmlns:inkscape="http://www.inkscape.org/namespaces/inkscape"
   width="92.598663mm"
   height="10.27841mm"
   viewBox="0 0 92.598663 10.27841"
   version="1.1"
   id="svg8"
   inkscape:version="1.0.2 (e86c870879, 2021-01-15, custom)"
   sodipodi:docname="email.svg">
  <defs
     id="defs2" />
  <sodipodi:namedview
     id="base"
     pagecolor="#ffffff"
     bordercolor="#666666"
     borderopacity="1.0"
     inkscape:pageopacity="0.0"
     inkscape:pageshadow="2"
     inkscape:zoom="1.4"
     inkscape:cx="-100.56727"
     inkscape:cy="-73.855238"
     inkscape:document-units="mm"
     inkscape:current-layer="layer1"
     inkscape:document-rotation="0"
     showgrid="false"
     inkscape:window-width="3840"
     inkscape:window-height="2066"
     inkscape:window-x="-11"
     inkscape:window-y="-11"
     inkscape:window-maximized="1" />
  <metadata
     id="metadata5">
    <rdf:RDF>
      <cc:Work
         rdf:about="">
        <dc:format>image/svg+xml</dc:format>
        <dc:type
           rdf:resource="http://purl.org/dc/dcmitype/StillImage" />
        <dc:title />
      </cc:Work>
    </rdf:RDF>
  </metadata>
  <g
     inkscape:label="Layer 1"
     inkscape:groupmode="layer"
     id="layer1"
     transform="translate(-35.64271,-102.43157)">
    <g
       aria-label="djmaity@gmail.com"
       id="text835"
       style="font-size:10.5833px;line-height:1.25;font-family:Roboto;-inkscape-font-specification:Roboto;fill:#3a3a3a;fill-opacity:1;stroke-width:0.264583">
      <path
         d="m 35.642711,107.52685 q 0,-1.28674 0.60978,-2.06705 0.60978,-0.78548 1.596797,-0.78548 0.981849,0 1.555456,0.67179 v -2.91454 h 0.956011 v 7.93747 h -0.878497 l -0.04651,-0.59944 q -0.573606,0.70279 -1.596796,0.70279 -0.971514,0 -1.586462,-0.79581 -0.60978,-0.79582 -0.60978,-2.07739 z m 0.956011,0.10852 q 0,0.95084 0.39274,1.48827 0.39274,0.53744 1.085202,0.53744 0.909502,0 1.32808,-0.81649 v -2.56831 q -0.428913,-0.79065 -1.317745,-0.79065 -0.702797,0 -1.095537,0.5426 -0.39274,0.54261 -0.39274,1.60714 z"
         style="fill:#3a3a3a;fill-opacity:1;stroke-width:0.264583"
         id="path872" />
      <path
         d="m 42.83088,104.77767 v 6.23732 q 0,1.6123 -1.462438,1.6123 -0.315225,0 -0.583942,-0.093 v -0.76481 q 0.165364,0.0413 0.434081,0.0413 0.320392,0 0.485756,-0.1757 0.170532,-0.17053 0.170532,-0.59944 v -6.258 z m -1.054196,-1.48311 q 0,-0.22738 0.139526,-0.38757 0.144694,-0.16537 0.418578,-0.16537 0.279052,0 0.423745,0.1602 0.144694,0.1602 0.144694,0.39274 0,0.23254 -0.144694,0.38757 -0.144693,0.15503 -0.423745,0.15503 -0.279052,0 -0.418578,-0.15503 -0.139526,-0.15503 -0.139526,-0.38757 z"
         style="fill:#3a3a3a;fill-opacity:1;stroke-width:0.264583"
         id="path874" />
      <path
         d="m 45.27,104.77767 0.02584,0.62011 q 0.614947,-0.72346 1.658808,-0.72346 1.173051,0 1.596796,0.89916 0.279052,-0.40307 0.723468,-0.65112 0.449584,-0.24804 1.059364,-0.24804 1.839675,0 1.870681,1.94819 v 3.74653 h -0.956011 v -3.68968 q 0,-0.59945 -0.273885,-0.894 -0.273884,-0.29973 -0.919837,-0.29973 -0.532266,0 -0.883664,0.3204 -0.351399,0.31522 -0.408243,0.85266 v 3.71035 h -0.961179 v -3.66385 q 0,-1.21956 -1.193721,-1.21956 -0.940508,0 -1.286739,0.80099 v 4.08242 h -0.956011 v -5.59137 z"
         style="fill:#3a3a3a;fill-opacity:1;stroke-width:0.264583"
         id="path876" />
      <path
         d="m 57.098698,110.36904 q -0.08268,-0.16536 -0.134358,-0.58911 -0.666624,0.69246 -1.591629,0.69246 -0.82682,0 -1.359086,-0.46508 -0.527098,-0.47026 -0.527098,-1.18856 0,-0.87333 0.661456,-1.35391 0.666624,-0.48576 1.870681,-0.48576 h 0.930173 v -0.43925 q 0,-0.50126 -0.299722,-0.79581 -0.299723,-0.29973 -0.883664,-0.29973 -0.511595,0 -0.857826,0.25838 -0.346231,0.25839 -0.346231,0.62529 h -0.961179 q 0,-0.41858 0.294555,-0.80615 0.299722,-0.39274 0.80615,-0.62012 0.511595,-0.22737 1.121375,-0.22737 0.966346,0 1.514114,0.48575 0.547769,0.48059 0.568439,1.32808 v 2.57348 q 0,0.76998 0.19637,1.22473 v 0.0827 z m -1.586461,-0.72863 q 0.449583,0 0.852658,-0.23255 0.403075,-0.23254 0.583942,-0.60461 v -1.14721 h -0.749306 q -1.756993,0 -1.756993,1.02836 0,0.44958 0.299723,0.70279 0.299722,0.25322 0.769976,0.25322 z"
         style="fill:#3a3a3a;fill-opacity:1;stroke-width:0.264583"
         id="path878" />
      <path
         d="m 60.442153,110.36904 h -0.956011 v -5.59137 h 0.956011 z m -1.033525,-7.07448 q 0,-0.23254 0.139526,-0.39274 0.144694,-0.1602 0.423745,-0.1602 0.279052,0 0.423746,0.1602 0.144693,0.1602 0.144693,0.39274 0,0.23254 -0.144693,0.38757 -0.144694,0.15503 -0.423746,0.15503 -0.279051,0 -0.423745,-0.15503 -0.139526,-0.15503 -0.139526,-0.38757 z"
         style="fill:#3a3a3a;fill-opacity:1;stroke-width:0.264583"
         id="path880" />
      <path
         d="m 63.268845,103.42375 v 1.35392 h 1.04386 v 0.73897 h -1.04386 v 3.46748 q 0,0.33589 0.139525,0.50642 0.139526,0.16537 0.475422,0.16537 0.165364,0 0.454751,-0.062 v 0.77514 q -0.377236,0.10335 -0.733803,0.10335 -0.640785,0 -0.966346,-0.38757 -0.32556,-0.38757 -0.32556,-1.1007 v -3.46748 h -1.018023 v -0.73897 h 1.018023 v -1.35392 z"
         style="fill:#3a3a3a;fill-opacity:1;stroke-width:0.264583"
         id="path882" />
      <path
         d="m 67.258252,108.96861 1.302242,-4.19094 h 1.02319 l -2.247918,6.45437 q -0.52193,1.39525 -1.658808,1.39525 l -0.180867,-0.0155 -0.356566,-0.0672 v -0.77514 l 0.258381,0.0207 q 0.485757,0 0.754474,-0.19637 0.273884,-0.19637 0.449583,-0.7183 l 0.211873,-0.56844 -1.994704,-5.52936 h 1.043861 z"
         style="fill:#3a3a3a;fill-opacity:1;stroke-width:0.264583"
         id="path884" />
      <path
         d="m 78.694211,107.77489 q -0.06201,1.25057 -0.620116,1.97404 -0.558103,0.72346 -1.493444,0.72346 -0.966346,0 -1.24023,-0.86816 -0.279052,0.43925 -0.640786,0.65629 -0.356566,0.21187 -0.73897,0.21187 -0.733803,0 -1.11104,-0.59944 -0.377237,-0.59945 -0.279052,-1.65881 0.07751,-0.85266 0.387572,-1.51928 0.315225,-0.67179 0.80615,-1.0542 0.496092,-0.3824 1.038693,-0.3824 0.418578,0 0.749306,0.11369 0.330728,0.10852 0.744138,0.43408 l -0.268717,2.86286 q -0.09819,1.19372 0.661457,1.19372 0.583941,0 0.945675,-0.57877 0.361734,-0.57877 0.39274,-1.50895 0.09819,-2.0102 -0.749306,-3.0644 -0.842323,-1.0542 -2.568311,-1.0542 -1.038693,0 -1.844842,0.51677 -0.80615,0.51159 -1.271236,1.48311 -0.465087,0.97151 -0.521931,2.24275 -0.06201,1.28157 0.310058,2.22724 0.372069,0.94051 1.13171,1.4366 0.764809,0.50126 1.844843,0.50126 0.465086,0 0.930173,-0.11368 0.470254,-0.11369 0.780311,-0.29456 l 0.191202,0.59428 q -0.320392,0.20154 -0.852658,0.33073 -0.527098,0.12919 -1.069699,0.12919 -1.291906,0 -2.222079,-0.58395 -0.930173,-0.57877 -1.395259,-1.67431 -0.459919,-1.09037 -0.397908,-2.5528 0.06201,-1.4211 0.635618,-2.55281 0.573607,-1.13688 1.555456,-1.75183 0.981849,-0.62011 2.216912,-0.62011 1.286739,0 2.206577,0.57877 0.919837,0.57878 1.369421,1.66915 0.449583,1.09036 0.387572,2.5528 z m -5.301985,0.43925 q -0.07235,0.7338 0.134358,1.12654 0.211873,0.39274 0.666624,0.39274 0.310057,0 0.594277,-0.26355 0.289387,-0.26354 0.475422,-0.75447 l 0.0052,-0.0465 0.237711,-2.59931 q -0.289387,-0.14987 -0.620115,-0.14987 -0.604613,0 -1.00252,0.61495 -0.392739,0.61495 -0.490924,1.67948 z"
         style="fill:#3a3a3a;fill-opacity:1;stroke-width:0.264583"
         id="path886" />
      <path
         d="m 79.712233,107.52685 q 0,-1.30741 0.604612,-2.07739 0.604613,-0.77514 1.601965,-0.77514 1.02319,0 1.596796,0.72346 l 0.04651,-0.62011 h 0.873329 v 5.45701 q 0,1.0852 -0.645954,1.71049 -0.640785,0.62528 -1.725987,0.62528 -0.604612,0 -1.183386,-0.25838 -0.578775,-0.25838 -0.883665,-0.70797 l 0.496093,-0.5736 q 0.614947,0.75964 1.503779,0.75964 0.69763,0 1.085202,-0.39274 0.392739,-0.39274 0.392739,-1.10587 v -0.48059 q -0.573606,0.66145 -1.565791,0.66145 -0.981849,0 -1.591629,-0.79064 -0.604612,-0.79065 -0.604613,-2.1549 z m 0.961178,0.10852 q 0,0.94567 0.387573,1.48827 0.387572,0.53744 1.085201,0.53744 0.904335,0 1.32808,-0.82166 v -2.5528 q -0.439248,-0.80099 -1.317745,-0.80099 -0.697629,0 -1.090369,0.5426 -0.39274,0.54261 -0.39274,1.60714 z"
         style="fill:#3a3a3a;fill-opacity:1;stroke-width:0.264583"
         id="path888" />
      <path
         d="m 86.776379,104.77767 0.02584,0.62011 q 0.614947,-0.72346 1.658808,-0.72346 1.173051,0 1.596797,0.89916 0.279051,-0.40307 0.723467,-0.65112 0.449584,-0.24804 1.059364,-0.24804 1.839675,0 1.870681,1.94819 v 3.74653 h -0.956011 v -3.68968 q 0,-0.59945 -0.273884,-0.894 -0.273885,-0.29973 -0.919838,-0.29973 -0.532266,0 -0.883664,0.3204 -0.351399,0.31522 -0.408243,0.85266 v 3.71035 h -0.961178 v -3.66385 q 0,-1.21956 -1.193722,-1.21956 -0.940508,0 -1.286739,0.80099 v 4.08242 h -0.956011 v -5.59137 z"
         style="fill:#3a3a3a;fill-opacity:1;stroke-width:0.264583"
         id="path890" />
      <path
         d="m 98.605077,110.36904 q -0.08268,-0.16536 -0.134359,-0.58911 -0.666624,0.69246 -1.591629,0.69246 -0.82682,0 -1.359086,-0.46508 -0.527098,-0.47026 -0.527098,-1.18856 0,-0.87333 0.661457,-1.35391 0.666623,-0.48576 1.870681,-0.48576 h 0.930172 v -0.43925 q 0,-0.50126 -0.299722,-0.79581 -0.299722,-0.29973 -0.883664,-0.29973 -0.511595,0 -0.857826,0.25838 -0.346231,0.25839 -0.346231,0.62529 h -0.961179 q 0,-0.41858 0.294555,-0.80615 0.299722,-0.39274 0.80615,-0.62012 0.511595,-0.22737 1.121375,-0.22737 0.966346,0 1.514114,0.48575 0.547769,0.48059 0.568439,1.32808 v 2.57348 q 0,0.76998 0.19637,1.22473 v 0.0827 z m -1.586462,-0.72863 q 0.449584,0 0.852659,-0.23255 0.403074,-0.23254 0.583941,-0.60461 v -1.14721 h -0.749306 q -1.756993,0 -1.756993,1.02836 0,0.44958 0.299723,0.70279 0.299722,0.25322 0.769976,0.25322 z"
         style="fill:#3a3a3a;fill-opacity:1;stroke-width:0.264583"
         id="path892" />
      <path
         d="m 101.94853,110.36904 h -0.95601 v -5.59137 h 0.95601 z m -1.03352,-7.07448 q 0,-0.23254 0.13952,-0.39274 0.1447,-0.1602 0.42375,-0.1602 0.27905,0 0.42374,0.1602 0.1447,0.1602 0.1447,0.39274 0,0.23254 -0.1447,0.38757 -0.14469,0.15503 -0.42374,0.15503 -0.27905,0 -0.42375,-0.15503 -0.13952,-0.15503 -0.13952,-0.38757 z"
         style="fill:#3a3a3a;fill-opacity:1;stroke-width:0.264583"
         id="path894" />
      <path
         d="m 104.51684,110.36904 h -0.95601 v -7.93747 h 0.95601 z"
         style="fill:#3a3a3a;fill-opacity:1;stroke-width:0.264583"
         id="path896" />
      <path
         d="m 106.06713,109.86778 q 0,-0.24804 0.14469,-0.41341 0.14986,-0.16536 0.44442,-0.16536 0.29455,0 0.44441,0.16536 0.15503,0.16537 0.15503,0.41341 0,0.23771 -0.15503,0.39791 -0.14986,0.1602 -0.44441,0.1602 -0.29456,0 -0.44442,-0.1602 -0.14469,-0.1602 -0.14469,-0.39791 z"
         style="fill:#3a3a3a;fill-opacity:1;stroke-width:0.264583"
         id="path898" />
      <path
         d="m 111.07456,109.69208 q 0.5116,0 0.894,-0.31006 0.38241,-0.31005 0.42375,-0.77514 h 0.90433 q -0.0258,0.48059 -0.33073,0.91467 -0.30489,0.43408 -0.81648,0.69246 -0.50643,0.25838 -1.07487,0.25838 -1.14204,0 -1.819,-0.75964 -0.67179,-0.76481 -0.67179,-2.08772 v -0.16019 q 0,-0.81649 0.29972,-1.45211 0.29972,-0.63562 0.85783,-0.98701 0.56327,-0.3514 1.32808,-0.3514 0.9405,0 1.56062,0.56327 0.62528,0.56327 0.66662,1.46244 h -0.90433 q -0.0413,-0.5426 -0.41341,-0.88884 -0.3669,-0.35139 -0.9095,-0.35139 -0.72864,0 -1.13172,0.52709 -0.3979,0.52193 -0.3979,1.51412 v 0.18087 q 0,0.96634 0.3979,1.48827 0.39791,0.52193 1.13688,0.52193 z"
         style="fill:#3a3a3a;fill-opacity:1;stroke-width:0.264583"
         id="path900" />
      <path
         d="m 114.11829,107.52168 q 0,-0.82165 0.3204,-1.47794 0.32556,-0.65629 0.89916,-1.01286 0.57878,-0.35656 1.31775,-0.35656 1.14205,0 1.84484,0.79064 0.70797,0.79065 0.70797,2.10323 v 0.0672 q 0,0.81648 -0.31523,1.4676 -0.31006,0.64596 -0.894,1.00769 -0.57877,0.36173 -1.33325,0.36173 -1.13687,0 -1.84484,-0.79064 -0.7028,-0.79065 -0.7028,-2.09289 z m 0.96118,0.11369 q 0,0.93017 0.42892,1.49344 0.43408,0.56327 1.15754,0.56327 0.72864,0 1.15755,-0.56844 0.42892,-0.5736 0.42892,-1.60196 0,-0.91984 -0.43925,-1.48828 -0.43408,-0.5736 -1.15755,-0.5736 -0.70797,0 -1.14205,0.56327 -0.43408,0.56327 -0.43408,1.6123 z"
         style="fill:#3a3a3a;fill-opacity:1;stroke-width:0.264583"
         id="path902" />
      <path
         d="m 121.30646,104.77767 0.0258,0.62011 q 0.61494,-0.72346 1.6588,-0.72346 1.17306,0 1.5968,0.89916 0.27905,-0.40307 0.72347,-0.65112 0.44958,-0.24804 1.05936,-0.24804 1.83968,0 1.87068,1.94819 v 3.74653 h -0.95601 v -3.68968 q 0,-0.59945 -0.27388,-0.894 -0.27389,-0.29973 -0.91984,-0.29973 -0.53227,0 -0.88366,0.3204 -0.3514,0.31522 -0.40825,0.85266 v 3.71035 h -0.96118 v -3.66385 q 0,-1.21956 -1.19372,-1.21956 -0.94051,0 -1.28674,0.80099 v 4.08242 h -0.95601 v -5.59137 z"
         style="fill:#3a3a3a;fill-opacity:1;stroke-width:0.264583"
         id="path904" />
    </g>
  </g>
</svg>
