<?xml version="1.0" encoding="UTF-8" standalone="no"?>
<svg
   xmlns:dc="http://purl.org/dc/elements/1.1/"
   xmlns:cc="http://creativecommons.org/ns#"
   xmlns:rdf="http://www.w3.org/1999/02/22-rdf-syntax-ns#"
   xmlns:svg="http://www.w3.org/2000/svg"
   xmlns="http://www.w3.org/2000/svg"
   xmlns:sodipodi="http://sodipodi.sourceforge.net/DTD/sodipodi-0.dtd"
   xmlns:inkscape="http://www.inkscape.org/namespaces/inkscape"
   width="84.891479mm"
   height="8.3187637mm"
   viewBox="0 0 84.891479 8.3187637"
   version="1.1"
   id="svg8"
   sodipodi:docname="phone.svg"
   inkscape:version="1.0.2 (e86c870879, 2021-01-15, custom)">
  <defs
     id="defs2" />
  <sodipodi:namedview
     id="base"
     pagecolor="#ffffff"
     bordercolor="#666666"
     borderopacity="1.0"
     inkscape:pageopacity="0.0"
     inkscape:pageshadow="2"
     inkscape:zoom="7.919596"
     inkscape:cx="168.72073"
     inkscape:cy="62.898067"
     inkscape:document-units="mm"
     inkscape:current-layer="layer1"
     inkscape:document-rotation="0"
     showgrid="false"
     inkscape:window-width="3840"
     inkscape:window-height="2066"
     inkscape:window-x="-11"
     inkscape:window-y="-11"
     inkscape:window-maximized="1" />
  <metadata
     id="metadata5">
    <rdf:RDF>
      <cc:Work
         rdf:about="">
        <dc:format>image/svg+xml</dc:format>
        <dc:type
           rdf:resource="http://purl.org/dc/dcmitype/StillImage" />
        <dc:title />
      </cc:Work>
    </rdf:RDF>
  </metadata>
  <g
     inkscape:label="Layer 1"
     inkscape:groupmode="layer"
     id="layer1"
     transform="translate(-35.120548,-102.24049)">
    <g
       aria-label="+91 948 210 4218"
       id="text835"
       style="font-size:10.5833px;line-height:1.25;font-family:Roboto;-inkscape-font-specification:Roboto;fill:#3a3a3a;fill-opacity:1;stroke-width:0.264583"
       transform="translate(-0.08406325,-0.20713313)">
      <path
         d="m 38.614097,106.33312 h 2.098056 v 0.90434 h -2.098056 v 2.37711 h -0.961179 v -2.37711 h -2.098056 v -0.90434 h 2.098056 v -2.19624 h 0.961179 z"
         style="fill:#3a3a3a;fill-opacity:1;stroke-width:0.264583"
         id="path907" />
      <path
         d="m 45.440532,107.06176 q -0.299723,0.35657 -0.7183,0.57361 -0.413411,0.21704 -0.909503,0.21704 -0.651121,0 -1.136878,-0.3204 -0.480589,-0.32039 -0.744138,-0.89916 -0.263549,-0.58394 -0.263549,-1.28674 0,-0.75448 0.28422,-1.35909 0.289387,-0.60461 0.816485,-0.925 0.527098,-0.3204 1.229895,-0.3204 1.116207,0 1.756993,0.83716 0.645953,0.83199 0.645953,2.27376 v 0.27905 q 0,2.19624 -0.868161,3.20909 -0.868161,1.00769 -2.619987,1.03353 h -0.186034 v -0.80615 h 0.201537 q 1.183387,-0.0207 1.819005,-0.61495 0.635618,-0.59944 0.692462,-1.89135 z m -1.472774,0 q 0.480589,0 0.883664,-0.29455 0.408243,-0.29456 0.594277,-0.72864 v -0.3824 q 0,-0.94051 -0.408242,-1.52962 -0.408243,-0.58911 -1.033525,-0.58911 -0.630451,0 -1.012855,0.48576 -0.382405,0.48059 -0.382405,1.27123 0,0.76998 0.366902,1.27124 0.372069,0.49609 0.992184,0.49609 z"
         style="fill:#3a3a3a;fill-opacity:1;stroke-width:0.264583"
         id="path909" />
      <path
         d="m 50.861372,110.36904 h -0.961178 v -6.37168 l -1.927525,0.70796 v -0.86816 l 2.738842,-1.02836 h 0.149861 z"
         style="fill:#3a3a3a;fill-opacity:1;stroke-width:0.264583"
         id="path911" />
      <path
         d="m 59.946061,107.06176 q -0.299722,0.35657 -0.7183,0.57361 -0.41341,0.21704 -0.909502,0.21704 -0.651121,0 -1.136878,-0.3204 -0.480589,-0.32039 -0.744138,-0.89916 -0.263549,-0.58394 -0.263549,-1.28674 0,-0.75448 0.284219,-1.35909 0.289387,-0.60461 0.816485,-0.925 0.527098,-0.3204 1.229895,-0.3204 1.116208,0 1.756993,0.83716 0.645954,0.83199 0.645954,2.27376 v 0.27905 q 0,2.19624 -0.868162,3.20909 -0.868161,1.00769 -2.619986,1.03353 h -0.186035 v -0.80615 h 0.201538 q 1.183386,-0.0207 1.819004,-0.61495 0.635618,-0.59944 0.692462,-1.89135 z m -1.472773,0 q 0.480589,0 0.883664,-0.29455 0.408242,-0.29456 0.594277,-0.72864 v -0.3824 q 0,-0.94051 -0.408243,-1.52962 -0.408242,-0.58911 -1.033525,-0.58911 -0.630451,0 -1.012855,0.48576 -0.382404,0.48059 -0.382404,1.27123 0,0.76998 0.366901,1.27124 0.372069,0.49609 0.992185,0.49609 z"
         style="fill:#3a3a3a;fill-opacity:1;stroke-width:0.264583"
         id="path913" />
      <path
         d="m 66.2609,107.84207 h 1.043861 v 0.78031 H 66.2609 v 1.74666 h -0.961178 v -1.74666 h -3.426137 v -0.56327 l 3.369293,-5.21413 H 66.2609 Z m -3.302113,0 h 2.340935 v -3.68968 l -0.113688,0.2067 z"
         style="fill:#3a3a3a;fill-opacity:1;stroke-width:0.264583"
         id="path915" />
      <path
         d="m 72.73077,104.80868 q 0,0.56327 -0.299722,1.00251 -0.294555,0.43925 -0.800982,0.6873 0.589109,0.25321 0.930172,0.73897 0.346231,0.48576 0.346231,1.1007 0,0.97669 -0.661456,1.55546 -0.656288,0.57877 -1.731155,0.57877 -1.085201,0 -1.74149,-0.57877 -0.651121,-0.58394 -0.651121,-1.55546 0,-0.60978 0.330728,-1.1007 0.335896,-0.49092 0.925005,-0.74414 -0.501259,-0.24804 -0.790647,-0.68729 -0.289387,-0.43925 -0.289387,-0.99735 0,-0.95085 0.60978,-1.50895 0.60978,-0.55811 1.607132,-0.55811 0.992185,0 1.601965,0.55811 0.614947,0.5581 0.614947,1.50895 z m -0.780312,3.50881 q 0,-0.63045 -0.403074,-1.02835 -0.397908,-0.39791 -1.043861,-0.39791 -0.645953,0 -1.038693,0.39274 -0.387572,0.39274 -0.387572,1.03352 0,0.64079 0.377237,1.00769 0.382404,0.3669 1.059363,0.3669 0.671792,0 1.054196,-0.3669 0.382404,-0.37207 0.382404,-1.00769 z m -1.4366,-4.79039 q -0.563271,0 -0.91467,0.3514 -0.346231,0.34623 -0.346231,0.94568 0,0.5736 0.341064,0.93017 0.346231,0.3514 0.919837,0.3514 0.573607,0 0.91467,-0.3514 0.346231,-0.35657 0.346231,-0.93017 0,-0.57361 -0.356566,-0.93534 -0.356566,-0.36174 -0.904335,-0.36174 z"
         style="fill:#3a3a3a;fill-opacity:1;stroke-width:0.264583"
         id="path917" />
      <path
         d="m 81.660427,110.36904 h -4.929916 v -0.68729 l 2.604484,-2.89387 q 0.578774,-0.65629 0.795815,-1.06454 0.222208,-0.41341 0.222208,-0.85265 0,-0.58911 -0.356567,-0.96635 -0.356566,-0.37724 -0.950843,-0.37724 -0.713132,0 -1.11104,0.40825 -0.392739,0.40307 -0.392739,1.12654 h -0.956011 q 0,-1.03869 0.666624,-1.67948 0.671791,-0.64079 1.793166,-0.64079 1.049028,0 1.658808,0.55294 0.60978,0.54777 0.60978,1.46244 0,1.11104 -1.41593,2.64582 l -2.015374,2.18591 h 3.777535 z"
         style="fill:#3a3a3a;fill-opacity:1;stroke-width:0.264583"
         id="path919" />
      <path
         d="m 85.8152,110.36904 h -0.961178 v -6.37168 l -1.927525,0.70796 v -0.86816 l 2.738842,-1.02836 H 85.8152 Z"
         style="fill:#3a3a3a;fill-opacity:1;stroke-width:0.264583"
         id="path921" />
      <path
         d="m 93.334098,107.15995 q 0,1.67947 -0.573606,2.49596 -0.573607,0.81648 -1.793167,0.81648 -1.204057,0 -1.782831,-0.79581 -0.578774,-0.80098 -0.599445,-2.38744 v -1.27641 q 0,-1.65881 0.573607,-2.46496 0.573606,-0.80615 1.798334,-0.80615 1.214392,0 1.787999,0.78032 0.573606,0.77514 0.589109,2.39777 z m -0.956011,-1.30741 q 0,-1.2144 -0.341063,-1.76733 -0.341063,-0.55811 -1.080034,-0.55811 -0.733803,0 -1.069699,0.55294 -0.335895,0.55294 -0.346231,1.70015 v 1.52962 q 0,1.21956 0.351399,1.8035 0.356566,0.57877 1.074866,0.57877 0.707965,0 1.049029,-0.54777 0.34623,-0.54776 0.361733,-1.72598 z"
         style="fill:#3a3a3a;fill-opacity:1;stroke-width:0.264583"
         id="path923" />
      <path
         d="m 101.21473,107.84207 h 1.04386 v 0.78031 h -1.04386 v 1.74666 h -0.96118 v -1.74666 h -3.426138 v -0.56327 l 3.369288,-5.21413 h 1.01803 z m -3.302116,0 h 2.340936 v -3.68968 l -0.11369,0.2067 z"
         style="fill:#3a3a3a;fill-opacity:1;stroke-width:0.264583"
         id="path925" />
      <path
         d="m 108.0515,110.36904 h -4.92992 v -0.68729 l 2.60449,-2.89387 q 0.57877,-0.65629 0.79581,-1.06454 0.22221,-0.41341 0.22221,-0.85265 0,-0.58911 -0.35657,-0.96635 -0.35656,-0.37724 -0.95084,-0.37724 -0.71313,0 -1.11104,0.40825 -0.39274,0.40307 -0.39274,1.12654 h -0.95601 q 0,-1.03869 0.66662,-1.67948 0.67179,-0.64079 1.79317,-0.64079 1.04903,0 1.65881,0.55294 0.60978,0.54777 0.60978,1.46244 0,1.11104 -1.41593,2.64582 l -2.01538,2.18591 h 3.77754 z"
         style="fill:#3a3a3a;fill-opacity:1;stroke-width:0.264583"
         id="path927" />
      <path
         d="m 112.20627,110.36904 h -0.96118 v -6.37168 l -1.92752,0.70796 v -0.86816 l 2.73884,-1.02836 h 0.14986 z"
         style="fill:#3a3a3a;fill-opacity:1;stroke-width:0.264583"
         id="path929" />
      <path
         d="m 119.57014,104.80868 q 0,0.56327 -0.29972,1.00251 -0.29456,0.43925 -0.80098,0.6873 0.58911,0.25321 0.93017,0.73897 0.34623,0.48576 0.34623,1.1007 0,0.97669 -0.66146,1.55546 -0.65628,0.57877 -1.73115,0.57877 -1.0852,0 -1.74149,-0.57877 -0.65112,-0.58394 -0.65112,-1.55546 0,-0.60978 0.33073,-1.1007 0.33589,-0.49092 0.925,-0.74414 -0.50126,-0.24804 -0.79065,-0.68729 -0.28938,-0.43925 -0.28938,-0.99735 0,-0.95085 0.60978,-1.50895 0.60978,-0.55811 1.60713,-0.55811 0.99218,0 1.60196,0.55811 0.61495,0.5581 0.61495,1.50895 z m -0.78031,3.50881 q 0,-0.63045 -0.40308,-1.02835 -0.3979,-0.39791 -1.04386,-0.39791 -0.64595,0 -1.03869,0.39274 -0.38757,0.39274 -0.38757,1.03352 0,0.64079 0.37724,1.00769 0.3824,0.3669 1.05936,0.3669 0.67179,0 1.05419,-0.3669 0.38241,-0.37207 0.38241,-1.00769 z m -1.4366,-4.79039 q -0.56327,0 -0.91467,0.3514 -0.34623,0.34623 -0.34623,0.94568 0,0.5736 0.34106,0.93017 0.34623,0.3514 0.91984,0.3514 0.57361,0 0.91467,-0.3514 0.34623,-0.35657 0.34623,-0.93017 0,-0.57361 -0.35657,-0.93534 -0.35656,-0.36174 -0.90433,-0.36174 z"
         style="fill:#3a3a3a;fill-opacity:1;stroke-width:0.264583"
         id="path931" />
    </g>
  </g>
</svg>
